<?xml version="1.0" encoding="utf-8"?>
<!-- Generator: Adobe Illustrator 16.0.0, SVG Export Plug-In . SVG Version: 6.00 Build 0)  -->
<!DOCTYPE svg PUBLIC "-//W3C//DTD SVG 1.1//EN" "http://www.w3.org/Graphics/SVG/1.1/DTD/svg11.dtd">
<svg version="1.1" id="Слой_1" xmlns="http://www.w3.org/2000/svg" xmlns:xlink="http://www.w3.org/1999/xlink" x="0px" y="0px"
	 width="25px" height="25px" viewBox="0 0 25 25" enable-background="new 0 0 25 25" xml:space="preserve">
<path id="XMLID_94_" fill="#62B2E4" d="M14.519,7.326c0-0.261,0.211-0.473,0.471-0.473h0.564c0.262,0,0.473,0.212,0.473,0.473
	c0,0.258-0.211,0.471-0.473,0.471h-0.564C14.729,7.797,14.519,7.584,14.519,7.326z M12.442,7.797h0.563
	c0.261,0,0.471-0.213,0.471-0.471c0-0.261-0.21-0.473-0.471-0.473h-0.563c-0.261,0-0.471,0.212-0.471,0.473
	C11.971,7.584,12.181,7.797,12.442,7.797z M21.459,4.711v19.265c0,0.563-0.46,1.023-1.025,1.023H4.447
	c-0.563,0-1.024-0.46-1.024-1.023V4.711c0-0.566,0.461-1.025,1.024-1.025h0.239C4.647,3.56,4.625,3.424,4.625,3.284
	c0-0.334,0.124-0.639,0.324-0.873c-0.2-0.236-0.324-0.542-0.324-0.875c0-0.742,0.605-1.345,1.346-1.345h3.661
	c0.741,0,1.345,0.604,1.345,1.345c0,0.139-0.022,0.275-0.061,0.403H12.6c0.743,0,1.348,0.604,1.348,1.346
	c0,0.14-0.023,0.276-0.063,0.402h6.549C20.999,3.686,21.459,4.146,21.459,4.711z M5.569,1.535c0,0.222,0.182,0.403,0.402,0.403
	h3.661c0.222,0,0.402-0.181,0.402-0.403c0-0.222-0.18-0.402-0.402-0.402H5.971C5.751,1.133,5.569,1.313,5.569,1.535z M5.569,3.284
	c0,0.223,0.182,0.402,0.402,0.402H12.6c0.223,0,0.404-0.18,0.404-0.402c0-0.222-0.181-0.401-0.404-0.401H5.971
	C5.751,2.883,5.569,3.062,5.569,3.284z M20.514,4.711c0-0.043-0.036-0.082-0.08-0.082H4.447c-0.045,0-0.081,0.039-0.081,0.082
	v19.265c0,0.044,0.038,0.081,0.081,0.081h15.986c0.044,0,0.08-0.037,0.08-0.081V4.711L20.514,4.711z M18.103,6.853H17.54
	c-0.261,0-0.474,0.212-0.474,0.473c0,0.258,0.213,0.471,0.474,0.471h0.563c0.262,0,0.474-0.213,0.474-0.471
	C18.576,7.065,18.364,6.853,18.103,6.853z M12.442,11.614c-0.261,0-0.471,0.21-0.471,0.471c0,0.261,0.21,0.472,0.471,0.472
	c0.917,0,1.789,0.362,2.448,1.018c0.664,0.663,1.03,1.535,1.03,2.458c0,0.262,0.211,0.473,0.471,0.473
	c0.262,0,0.473-0.211,0.473-0.473c0-1.176-0.464-2.287-1.309-3.125C14.717,12.072,13.609,11.614,12.442,11.614z M6.779,7.797h2.831
	c0.261,0,0.473-0.213,0.473-0.471c0-0.261-0.212-0.473-0.473-0.473H6.779c-0.26,0-0.473,0.212-0.473,0.473
	C6.306,7.584,6.519,7.797,6.779,7.797z M18.576,16.033c0,3.386-2.752,6.136-6.134,6.136c-3.385,0-6.136-2.75-6.136-6.136
	c0-3.379,2.751-6.132,6.136-6.132C15.824,9.901,18.576,12.654,18.576,16.033z M17.632,16.033c0-2.859-2.33-5.189-5.19-5.189
	c-2.862,0-5.192,2.33-5.192,5.189c0,2.865,2.331,5.195,5.192,5.195C15.302,21.229,17.632,18.898,17.632,16.033z M12.442,19.514
	c-0.939,0-1.855-0.383-2.513-1.054c-0.641-0.655-0.985-1.511-0.967-2.415c0.006-0.263-0.2-0.476-0.463-0.479
	c-0.262-0.008-0.476,0.201-0.48,0.461c-0.022,1.16,0.417,2.258,1.238,3.094c0.833,0.851,1.995,1.338,3.186,1.338
	c0.259,0,0.47-0.213,0.47-0.474C12.912,19.727,12.701,19.514,12.442,19.514z"/>
</svg>
