<?xml version="1.0" encoding="utf-8"?>
<!-- Generator: Adobe Illustrator 16.0.0, SVG Export Plug-In . SVG Version: 6.00 Build 0)  -->
<!DOCTYPE svg PUBLIC "-//W3C//DTD SVG 1.1//EN" "http://www.w3.org/Graphics/SVG/1.1/DTD/svg11.dtd">
<svg version="1.1" id="Слой_1" xmlns="http://www.w3.org/2000/svg" xmlns:xlink="http://www.w3.org/1999/xlink" x="0px" y="0px"
	 width="50px" height="50px" viewBox="0 0 50 50" enable-background="new 0 0 50 50" xml:space="preserve">
<g>
	<path fill="#FFFFFF" d="M36.181,7.58H12.584c-0.361,0-0.652,0.29-0.652,0.652v33.507c0,0.361,0.291,0.653,0.652,0.653h23.597
		c0.362,0,0.654-0.292,0.654-0.653V8.232C36.835,7.87,36.543,7.58,36.181,7.58z M13.236,9.166l10.492,3.869v23.901l-10.492,3.866
		V9.166z M35.53,41.089H16.24l8.365-3.085c0.26-0.096,0.431-0.342,0.431-0.611V12.581c0-0.273-0.281-0.516-0.54-0.612l-8.364-3.085
		H35.53V41.089z"/>
	<path fill="#FFFFFF" d="M21.576,23.821c-0.637,0-1.134,0.676-1.134,1.543c0,0.866,0.497,1.545,1.134,1.545
		c0.635,0,1.129-0.68,1.129-1.545C22.706,24.498,22.211,23.821,21.576,23.821z"/>
</g>
</svg>
