<?xml version="1.0" encoding="utf-8"?>
<!-- Generator: Adobe Illustrator 16.0.0, SVG Export Plug-In . SVG Version: 6.00 Build 0)  -->
<!DOCTYPE svg PUBLIC "-//W3C//DTD SVG 1.1//EN" "http://www.w3.org/Graphics/SVG/1.1/DTD/svg11.dtd">
<svg version="1.1" id="Слой_1" xmlns="http://www.w3.org/2000/svg" xmlns:xlink="http://www.w3.org/1999/xlink" x="0px" y="0px"
	 width="50px" height="50px" viewBox="0 0 50 50" enable-background="new 0 0 50 50" xml:space="preserve">
<g>
	<g>
		<path fill="#FFFFFF" d="M28.065,42.594h-7.287c-1.607,0-2.915-1.308-2.915-2.914c0-1.332,1.898-4.78,2.279-5.457
			c0.125-0.222,0.355-0.361,0.607-0.373c0.252,0.002,0.493,0.113,0.635,0.325l0.818,1.229l1.594-2.657c0.263-0.44,0.988-0.44,1.25,0
			l1.592,2.657l0.82-1.229c0.145-0.221,0.396-0.337,0.674-0.321c0.266,0.024,0.496,0.193,0.604,0.437l2.186,5.102
			c0.035,0.091,0.059,0.189,0.059,0.288C30.981,41.286,29.673,42.594,28.065,42.594z M20.844,35.991
			c-0.808,1.554-1.523,3.178-1.523,3.688c0,0.804,0.653,1.457,1.457,1.457h7.289c0.756,0,1.381-0.581,1.449-1.322l-1.59-3.713
			l-0.713,1.067c-0.139,0.206-0.365,0.325-0.621,0.325c-0.252-0.006-0.482-0.14-0.609-0.354l-1.562-2.604l-1.562,2.604
			c-0.129,0.214-0.358,0.348-0.607,0.354c-0.267-0.006-0.486-0.119-0.624-0.325L20.844,35.991z M29.524,30.936H19.321
			c-2.009,0-3.644-1.633-3.644-3.645V16.36h-2.186c-0.402,0-0.729-0.326-0.729-0.729c0-0.403,0.326-0.729,0.729-0.729h2.186v-2.915
			h-0.729c-0.402,0-0.729-0.326-0.729-0.728c0-0.404,0.326-0.729,0.729-0.729h5.903c0.339-1.662,1.81-2.916,3.57-2.916
			c1.759,0,3.233,1.254,3.571,2.916h5.904c0.4,0,0.727,0.325,0.727,0.729c0,0.402-0.326,0.728-0.727,0.728h-0.73v2.915h2.186
			c0.402,0,0.73,0.326,0.73,0.729c0,0.402-0.328,0.729-0.73,0.729h-2.186v10.931C33.167,29.301,31.534,30.936,29.524,30.936z
			 M17.135,11.988v15.303c0,1.207,0.98,2.186,2.186,2.186h10.203c1.205,0,2.188-0.979,2.188-2.186V11.988H17.135z M22.361,10.531
			h4.121c-0.301-0.848-1.108-1.457-2.06-1.457C23.472,9.074,22.662,9.683,22.361,10.531z"/>
	</g>
</g>
</svg>
