<?xml version="1.0" encoding="utf-8"?>
<!-- Generator: Adobe Illustrator 16.0.0, SVG Export Plug-In . SVG Version: 6.00 Build 0)  -->
<!DOCTYPE svg PUBLIC "-//W3C//DTD SVG 1.1//EN" "http://www.w3.org/Graphics/SVG/1.1/DTD/svg11.dtd">
<svg version="1.1" id="Слой_1" xmlns="http://www.w3.org/2000/svg" xmlns:xlink="http://www.w3.org/1999/xlink" x="0px" y="0px"
	 width="50px" height="50px" viewBox="0 0 50 50" enable-background="new 0 0 50 50" xml:space="preserve">
<g>
	<path fill="#FFFFFF" d="M39.227,25.701h-1.172V13.58c0-2.104-0.513-3.705-1.523-4.764c-0.902-0.943-2.147-1.419-3.703-1.419
		c-2.774,0-5.046,2.197-5.18,4.953c-1.568,0.276-2.869,1.344-3.363,2.829c-0.184,0.547-0.123,1.08,0.161,1.477
		c0.203,0.278,0.604,0.612,1.386,0.612h5.508c0.668,0,1.016-0.34,1.165-0.546c0.404-0.557,0.237-1.255,0.149-1.532
		c-0.49-1.476-1.777-2.545-3.327-2.836c0.123-1.834,1.645-3.287,3.501-3.287c2.394,0,3.56,1.477,3.56,4.513v12.121L9.622,25.637
		c-0.463,0-0.837,0.374-0.837,0.834c0,0.465,0.375,0.841,0.837,0.841h1v6.025c0,2.591,1.875,4.757,4.351,5.232
		c-0.186,0.37-0.295,0.786-0.295,1.229c0,1.509,1.23,2.738,2.74,2.738c1.508,0,2.739-1.229,2.739-2.738
		c0-0.404-0.09-0.785-0.246-1.131l8.936,0.063c-0.16,0.346-0.246,0.728-0.246,1.135c0,1.506,1.227,2.738,2.739,2.738
		c1.508,0,2.739-1.232,2.739-2.738c0-0.446-0.108-0.863-0.297-1.236c2.434-0.484,4.272-2.642,4.272-5.225V27.54v-0.164h1.172
		c0.458,0,0.834-0.375,0.834-0.838C40.061,26.078,39.685,25.701,39.227,25.701z M31.028,15.599h-5.122
		c0.386-0.995,1.399-1.653,2.562-1.653C29.609,13.946,30.644,14.621,31.028,15.599z M17.417,40.868c-0.589,0-1.068-0.481-1.068-1.07
		c0-0.587,0.479-1.07,1.068-1.07c0.587,0,1.069,0.483,1.069,1.07C18.487,40.387,18.005,40.868,17.417,40.868z M31.34,40.933
		c-0.589,0-1.069-0.479-1.069-1.067c0-0.591,0.48-1.072,1.069-1.072c0.59,0,1.067,0.481,1.067,1.072
		C32.407,40.453,31.93,40.933,31.34,40.933z M36.388,27.54v5.864c0,2.015-1.632,3.657-3.636,3.657l-16.761-0.065
		c-2.042,0-3.7-1.645-3.7-3.659v-6.025l24.096,0.064V27.54z"/>
	<path fill="#FFFFFF" d="M28.326,20.15c0.438,0,0.796-0.353,0.796-0.792v-0.335c0-0.44-0.358-0.792-0.796-0.792
		c-0.438,0-0.789,0.353-0.789,0.792v0.335C27.537,19.797,27.888,20.15,28.326,20.15z"/>
	<path fill="#FFFFFF" d="M27.537,21.693c0,0.442,0.351,0.795,0.789,0.795c0.438,0,0.796-0.353,0.796-0.795v-0.331
		c0-0.439-0.358-0.795-0.796-0.795c-0.438,0-0.789,0.355-0.789,0.795V21.693z"/>
	<path fill="#FFFFFF" d="M27.537,24.2c0,0.439,0.351,0.795,0.789,0.795c0.438,0,0.796-0.355,0.796-0.795v-0.417
		c0-0.439-0.358-0.795-0.796-0.795c-0.438,0-0.789,0.355-0.789,0.795V24.2z"/>
	<path fill="#FFFFFF" d="M25.781,20.226c0.092,0.032,0.181,0.048,0.271,0.048c0.327,0,0.627-0.202,0.746-0.524l0.101-0.277
		c0.15-0.41-0.066-0.866-0.474-1.017c-0.411-0.146-0.868,0.067-1.021,0.475l-0.1,0.278C25.156,19.621,25.369,20.076,25.781,20.226z"
		/>
	<path fill="#FFFFFF" d="M24.605,21.137l-0.101,0.279c-0.149,0.41,0.066,0.868,0.478,1.019c0.086,0.031,0.179,0.045,0.27,0.045
		c0.323,0,0.627-0.201,0.744-0.523l0.101-0.277c0.149-0.41-0.063-0.866-0.478-1.013C25.214,20.515,24.753,20.728,24.605,21.137z"/>
	<path fill="#FFFFFF" d="M24.147,24.735c0.088,0.031,0.179,0.048,0.271,0.048c0.323,0,0.627-0.201,0.745-0.528l0.103-0.272
		c0.145-0.413-0.067-0.868-0.48-1.019c-0.412-0.147-0.864,0.063-1.014,0.478l-0.101,0.274
		C23.522,24.129,23.735,24.585,24.147,24.735z"/>
	<path fill="#FFFFFF" d="M31.426,18.931c-0.148-0.408-0.602-0.621-1.014-0.475c-0.413,0.15-0.625,0.606-0.475,1.017l0.097,0.279
		c0.117,0.319,0.423,0.521,0.747,0.521c0.09,0,0.182-0.016,0.269-0.048c0.414-0.149,0.624-0.605,0.476-1.013L31.426,18.931z"/>
	<path fill="#FFFFFF" d="M32.225,21.145c-0.145-0.417-0.602-0.63-1.015-0.477c-0.412,0.147-0.623,0.603-0.474,1.013l0.098,0.277
		c0.119,0.322,0.422,0.523,0.746,0.523c0.092,0,0.182-0.015,0.273-0.045c0.413-0.15,0.624-0.606,0.473-1.019L32.225,21.145z"/>
	<path fill="#FFFFFF" d="M31.568,23.983l0.1,0.272c0.118,0.327,0.421,0.528,0.748,0.528c0.089,0,0.182-0.017,0.268-0.048
		c0.414-0.15,0.626-0.606,0.473-1.019l-0.096-0.274c-0.149-0.414-0.604-0.625-1.016-0.478
		C31.631,23.115,31.419,23.573,31.568,23.983z"/>
</g>
</svg>
