<?xml version="1.0" encoding="utf-8"?>
<!-- Generator: Adobe Illustrator 16.0.0, SVG Export Plug-In . SVG Version: 6.00 Build 0)  -->
<!DOCTYPE svg PUBLIC "-//W3C//DTD SVG 1.1//EN" "http://www.w3.org/Graphics/SVG/1.1/DTD/svg11.dtd">
<svg version="1.1" id="Слой_1" xmlns="http://www.w3.org/2000/svg" xmlns:xlink="http://www.w3.org/1999/xlink" x="0px" y="0px"
	 width="100px" height="100px" viewBox="0 0 100 100" enable-background="new 0 0 100 100" xml:space="preserve">
<path fill="#FFFFFF" d="M40.765,87.186"/>
<path fill="#FFFFFF" d="M41.792,14.795h-0.105"/>
<path fill="#FFFFFF" d="M57.145,14.795h-0.104"/>
<path fill="#FFFFFF" d="M58.066,87.186"/>
<path fill="#FFFFFF" d="M31.214,71.535c3.687-0.193,6.011-1.402,6.922-3.584c0.389-0.922,0.43-1.914,0.297-2.877
	c0.849,0.451,1.936,0.871,3.052,0.871c0.225,0,0.44-0.02,0.655-0.049c1.137-0.178,2.098-0.832,2.776-1.887
	c0.316-0.48,0.173-1.137-0.318-1.445c-0.48-0.307-1.137-0.172-1.444,0.32c-0.357,0.553-0.778,0.848-1.32,0.941
	c-1.351,0.215-3.114-0.963-3.687-1.434c-0.184-0.152-0.399-0.213-0.625-0.213c-0.398-0.791-0.84-1.457-1.198-1.854
	c-4.167-4.674-4.353-8.502-4.353-8.563c-0.009-0.574-0.459-0.954-1.064-1.027c-0.583,0.012-1.044,0.496-1.034,1.078
	c0.01,0.184,0.143,4.598,4.884,9.902c0.881,0.992,2.211,3.602,1.444,5.436c-0.707,1.713-3.165,2.191-5.09,2.295
	c-0.573,0.031-1.023,0.521-0.993,1.096c0.03,0.564,0.491,0.992,1.045,0.992H31.214z"/>
<path fill="#FFFFFF" d="M30.949,49.399c0-0.012,1.413-0.218,2.887,3.275c0.103,0.258,1.075,2.498,3.083,3.092
	c0.266,0.074,0.583,0.133,0.952,0.133c0.665,0,1.485-0.193,2.385-0.814c0.48-0.328,0.593-0.996,0.267-1.467
	c-0.328-0.482-0.984-0.596-1.455-0.268c-0.584,0.4-1.096,0.545-1.546,0.4c-0.891-0.256-1.555-1.443-1.75-1.883
	c-2.243-5.349-5.11-4.579-5.427-4.478c-0.544,0.185-0.871,0.791-0.687,1.345C29.833,49.276,30.395,49.581,30.949,49.399"/>
<path fill="#FFFFFF" d="M40.87,43.376c-0.215,0.531,0.042,1.146,0.573,1.362l0.4,0.081c0.41,0,0.799-0.245,0.973-0.646
	c3.011-7.289,0.4-17.477,0.286-17.909c-0.143-0.561-0.715-0.91-1.279-0.746c-0.564,0.144-0.891,0.728-0.748,1.279
	C41.096,26.902,43.625,36.729,40.87,43.376"/>
<path fill="#FFFFFF" d="M39.827,70.914c-0.573-0.094-1.107,0.295-1.198,0.869c-0.093,0.572,0.296,1.104,0.87,1.195
	c0.041,0,3.953,0.668,4.977,4.568c0.123,0.473,0.553,0.791,1.014,0.791l0.267-0.045c0.563-0.143,0.892-0.711,0.747-1.277
	C45.13,71.801,40.042,70.943,39.827,70.914"/>
<path fill="#FFFFFF" d="M41.619,80.146c-2.662,0.605-6.82-4.455-8.828-7.781c-0.307-0.492-0.952-0.645-1.443-0.348
	c-0.493,0.297-0.655,0.943-0.358,1.443c0.574,0.957,5.488,8.826,10.199,8.826c0.297,0,0.593-0.031,0.88-0.09
	c0.564-0.135,0.922-0.686,0.799-1.252C42.746,80.373,42.181,80.025,41.619,80.146"/>
<path fill="#FFFFFF" d="M30.682,66.918c0.512,0,0.963-0.377,1.035-0.912c0.071-0.574-0.329-1.094-0.902-1.178
	c-2.283-0.297-3.429-4.361-3.696-6.037c0.471-7.346-2.14-10.058-2.263-10.173c-0.4-0.398-1.044-0.406-1.454-0.008
	c-0.41,0.399-0.43,1.065-0.041,1.473c0.019,0.031,2.088,2.316,1.658,8.673l0.01,0.225c0.042,0.299,1.136,7.348,5.509,7.926
	L30.682,66.918z"/>
<path fill="#FFFFFF" d="M35.301,48.21c-0.236,0.532,0.01,1.146,0.532,1.382l0.431,0.09c0.398,0,0.778-0.234,0.951-0.623
	c1.097-2.456-0.049-6.779-0.183-7.26l-0.112-0.255c-2.734-4.628,0.961-9.298,1.126-9.491c0.205-0.256,0.255-0.585,0.195-0.894
	c0.358,0.421,0.736,0.83,1.187,1.251c0.205,0.184,0.461,0.276,0.717,0.276c0.287,0,0.564-0.113,0.768-0.339
	c0.4-0.418,0.369-1.083-0.051-1.483c-1.904-1.762-2.806-3.421-2.621-4.792c0.235-1.721,2.088-2.705,2.139-2.726
	c0.513-0.266,0.727-0.891,0.461-1.402c-0.257-0.522-0.88-0.735-1.403-0.468c-0.113,0.059-2.868,1.462-3.267,4.277
	c-0.216,1.517,0.297,3.093,1.495,4.713c-0.42-0.208-0.933-0.113-1.249,0.265c-0.195,0.235-4.721,5.898-1.372,11.755
	C35.341,43.642,35.946,46.757,35.301,48.21"/>
<path fill="#FFFFFF" d="M45.683,47.873c-0.357,1.331-3.296,1.37-4.659,1.176c-0.563-0.06-1.105,0.319-1.188,0.891
	c-0.082,0.573,0.318,1.108,0.891,1.19c0.195,0.027,0.83,0.111,1.659,0.111c1.874,0,4.679-0.419,5.325-2.815
	c0.152-0.564-0.175-1.136-0.737-1.29C46.42,46.992,45.848,47.318,45.683,47.873"/>
<path fill="#FFFFFF" d="M78.379,50.454c1.578-9.678-2.395-12.915-3.789-13.734c0.543-6.328-3.031-9.031-4.186-9.737
	c-0.105-1.157-0.434-2.253-1.016-3.255c-2.242-3.841-7.25-5.081-7.967-5.244c-1.648-1.721-3.408-2.6-5.264-2.6h-0.092
	c-3.184,0.049-5.622,2.683-6.768,4.208c-1.147-1.525-3.584-4.159-6.768-4.208h-0.094c-1.854,0-3.613,0.879-5.262,2.6
	c-0.717,0.163-5.724,1.403-7.967,5.244c-0.583,1.001-0.92,2.098-1.014,3.255c-1.157,0.707-4.73,3.409-4.187,9.737
	c-1.382,0.819-5.366,4.046-3.8,13.724c-0.388,0.724-2.826,5.548-1.526,10.177c0.308,1.076,0.809,2.025,1.454,2.887
	c-0.123,1.209-0.276,6.934,6.748,12.184c2.684,2.01,5.212,4.939,7.506,8.695l0.225,0.266c0.143,0.123,3.124,2.533,6.697,2.533
	c0.665,0,1.361-0.096,2.057-0.301c2.479-0.717,4.454-2.723,5.92-5.971c1.453,3.248,3.44,5.254,5.918,5.971
	c0.695,0.205,1.393,0.301,2.057,0.301c3.574-0.014,6.553-2.41,6.697-2.533l0.227-0.266c2.293-3.756,4.822-6.676,7.504-8.695
	c7.016-5.24,6.861-10.963,6.748-12.184c0.646-0.861,1.16-1.811,1.455-2.887C81.215,56.002,78.777,51.18,78.379,50.454 M48.08,78.324
	c-1.259,3.697-3.031,5.896-5.264,6.545c-2.989,0.879-6.072-1.25-6.737-1.74c-2.407-3.904-5.08-6.973-7.927-9.113
	c-4.229-3.164-5.478-6.41-5.826-8.418c0.337,0.234,0.666,0.49,1.044,0.695l0.513,0.133c0.357,0,0.717-0.193,0.911-0.529
	c0.286-0.504,0.102-1.148-0.4-1.438c-5.15-2.875-4.229-8.119-3.185-11.039l0.482,0.135l0.235-0.021
	c0.563-0.133,0.922-0.693,0.789-1.258c-1.978-8.561,0.297-12.011,1.658-13.251c0.256,1.198,0.637,2.488,1.198,3.912
	c0.165,0.41,0.564,0.665,0.973,0.665l0.389-0.08c0.543-0.205,0.8-0.82,0.595-1.352c-3.073-7.75-0.728-11.326,0.818-12.72
	c0.094,0.505,0.194,1.007,0.359,1.529c0.144,0.438,0.553,0.725,1.003,0.725l0.317-0.049c0.553-0.176,0.85-0.77,0.676-1.321
	c-0.687-2.13-0.583-3.995,0.317-5.549c0.932-1.608,2.56-2.663,3.984-3.328c-0.093,0.42,0.071,0.859,0.451,1.104
	c0.48,0.308,1.136,0.164,1.443-0.326c1.802-2.829,3.666-4.262,5.539-4.262h0.052c2.766,0.042,5.007,3.134,5.591,4.005V78.324z
	 M70.453,74.016c-2.857,2.141-5.529,5.209-7.936,9.113c-0.654,0.49-3.738,2.619-6.719,1.75c-2.242-0.658-4.012-2.848-5.282-6.541
	V21.985c0.838-1.292,3.071-3.962,5.581-4.003h0.061c1.875,0,3.738,1.433,5.539,4.259c0.309,0.491,0.963,0.635,1.445,0.328
	c0.379-0.247,0.543-0.687,0.461-1.104c1.414,0.665,3.041,1.72,3.973,3.328c0.9,1.557,1.002,3.419,0.318,5.55
	c-0.186,0.55,0.123,1.146,0.676,1.321l0.316,0.048c0.439,0,0.85-0.287,0.994-0.725c0.174-0.522,0.266-1.034,0.369-1.539
	c1.535,1.395,3.889,4.979,0.828,12.729c-0.215,0.533,0.041,1.147,0.584,1.353l0.389,0.07c0.42,0,0.809-0.244,0.973-0.655
	c0.563-1.423,0.941-2.711,1.197-3.911c1.363,1.241,3.637,4.688,1.66,13.25c-0.133,0.564,0.225,1.115,0.789,1.248l0.234,0.031
	l0.473-0.123c0.604,1.721,1.176,4.238,0.512,6.615c-0.523,1.854-1.764,3.34-3.678,4.416c-0.512,0.275-0.686,0.92-0.408,1.424
	c0.193,0.344,0.553,0.543,0.922,0.543l0.512-0.135c0.379-0.217,0.695-0.463,1.033-0.699C75.922,67.615,74.672,70.859,70.453,74.016"
	/>
<path fill="#FFFFFF" d="M58.229,23.347c0.02,0.01,1.883,0.984,2.129,2.704c0.203,1.383-0.707,3.052-2.611,4.814
	c-0.42,0.399-0.449,1.065-0.063,1.482c0.217,0.227,0.492,0.339,0.779,0.339c0.246,0,0.502-0.091,0.705-0.276
	c0.453-0.42,0.842-0.83,1.199-1.251c-0.072,0.309-0.021,0.638,0.193,0.895c0.043,0.049,3.873,4.832,1.117,9.492l-0.102,0.255
	c-0.133,0.481-1.281,4.804-0.195,7.26c0.176,0.39,0.564,0.623,0.963,0.623l0.42-0.09c0.531-0.235,0.768-0.859,0.531-1.381
	c-0.572-1.304-0.152-4.147,0.268-5.726c3.348-5.857-1.188-11.52-1.383-11.755c-0.307-0.378-0.818-0.462-1.248-0.266
	c1.207-1.619,1.721-3.185,1.504-4.713c-0.398-2.814-3.152-4.218-3.268-4.278c-0.52-0.257-1.146-0.053-1.412,0.469
	C57.5,22.456,57.717,23.091,58.229,23.347"/>
<path fill="#FFFFFF" d="M67.494,69.436c-1.926-0.102-4.385-0.57-5.088-2.291c-0.77-1.836,0.563-4.447,1.443-5.438
	c4.74-5.295,4.873-9.721,4.873-9.904c0.021-0.57-0.439-1.054-1.014-1.066c-0.594-0.027-1.055,0.443-1.074,1.017
	c0,0.039-0.176,3.889-4.352,8.561c-0.359,0.398-0.809,1.064-1.199,1.852c-0.215,0.014-0.441,0.074-0.635,0.227
	c-0.563,0.471-2.314,1.639-3.676,1.426c-0.543-0.086-0.963-0.391-1.32-0.945c-0.318-0.492-0.965-0.625-1.445-0.318
	c-0.49,0.318-0.635,0.963-0.316,1.455c0.676,1.055,1.639,1.709,2.773,1.877c0.217,0.039,0.432,0.049,0.646,0.049
	c1.127,0,2.201-0.41,3.051-0.861c-0.123,0.963-0.082,1.945,0.307,2.865c0.912,2.193,3.236,3.393,6.924,3.586h0.051
	c0.553,0,1.014-0.43,1.045-0.992C68.518,69.959,68.066,69.469,67.494,69.436"/>
<path fill="#FFFFFF" d="M61.084,53.764c-0.461,0.119-0.963,0-1.545-0.402c-0.473-0.34-1.129-0.217-1.455,0.266
	c-0.328,0.473-0.215,1.129,0.266,1.457c0.9,0.621,1.721,0.814,2.387,0.814c0.369,0,0.686-0.049,0.951-0.133
	c1.998-0.58,2.98-2.834,3.084-3.08c1.422-3.391,2.773-3.278,2.877-3.278c0.543,0.152,1.096-0.152,1.27-0.686
	c0.184-0.542-0.113-1.138-0.656-1.321c-0.328-0.111-3.174-0.883-5.428,4.474C62.641,52.307,61.975,53.494,61.084,53.764"/>
<path fill="#FFFFFF" d="M56.752,44.82l0.41-0.07c0.533-0.226,0.789-0.841,0.563-1.372C54.98,36.75,57.5,26.902,57.521,26.809
	c0.152-0.562-0.186-1.136-0.748-1.28c-0.564-0.163-1.127,0.184-1.27,0.747c-0.113,0.43-2.734,10.62,0.287,17.899
	C55.955,44.584,56.344,44.82,56.752,44.82"/>
<path fill="#FFFFFF" d="M59.109,72.979c0.57-0.092,0.961-0.623,0.867-1.195c-0.09-0.574-0.643-0.953-1.197-0.869
	c-0.215,0.029-5.303,0.887-6.676,6.113c-0.154,0.555,0.186,1.123,0.736,1.275l0.268,0.035c0.471,0,0.9-0.311,1.014-0.779
	C55.145,73.697,58.922,73.012,59.109,72.979"/>
<path fill="#FFFFFF" d="M67.248,72.018c-0.48-0.297-1.135-0.145-1.434,0.348c-2.018,3.326-6.186,8.408-8.836,7.781
	c-0.564-0.123-1.127,0.227-1.25,0.799c-0.123,0.566,0.227,1.129,0.799,1.252c0.287,0.059,0.574,0.09,0.869,0.09
	c4.723,0,9.637-7.869,10.211-8.826C67.904,72.961,67.752,72.314,67.248,72.018"/>
<path fill="#FFFFFF" d="M75.225,50.093c0.4-0.411,0.4-1.076-0.01-1.476c-0.398-0.406-1.064-0.406-1.475,0
	c-0.123,0.115-2.734,2.828-2.252,10.173c-0.266,1.584-1.426,5.74-3.707,6.037c-0.574,0.084-0.973,0.604-0.902,1.178
	c0.072,0.535,0.521,0.912,1.033,0.912l0.145-0.012c4.373-0.58,5.469-7.627,5.51-7.926l0.01-0.213
	C73.146,52.449,75.174,50.157,75.225,50.093"/>
<path fill="#FFFFFF" d="M57.879,51.129c0.564-0.084,0.973-0.617,0.891-1.19c-0.092-0.571-0.635-0.961-1.188-0.892
	c-0.891,0.136-4.26,0.299-4.67-1.175c-0.152-0.565-0.727-0.881-1.289-0.737c-0.564,0.153-0.892,0.726-0.738,1.29
	c0.656,2.396,3.462,2.815,5.324,2.815C57.039,51.24,57.684,51.156,57.879,51.129"/>
</svg>
