<?xml version="1.0" encoding="utf-8"?>
<!-- Generator: Adobe Illustrator 16.0.0, SVG Export Plug-In . SVG Version: 6.00 Build 0)  -->
<!DOCTYPE svg PUBLIC "-//W3C//DTD SVG 1.1//EN" "http://www.w3.org/Graphics/SVG/1.1/DTD/svg11.dtd">
<svg version="1.1" id="Слой_1" xmlns="http://www.w3.org/2000/svg" xmlns:xlink="http://www.w3.org/1999/xlink" x="0px" y="0px"
	 width="50px" height="50px" viewBox="0 0 50 50" enable-background="new 0 0 50 50" xml:space="preserve">
<g>
	<path fill="#FFFFFF" d="M44.433,19.274c-0.014-0.378-0.226-1.076-1.449-1.524L17.819,8.674c-1.672-0.607-3.526,0.257-4.135,1.931
		l-0.878,2.422c0,0,0,0-0.004,0l-1.983,5.456c-0.609,1.67,0.254,3.524,1.927,4.133l5.98,2.153c-0.183,1.099,0.122,2.185,0.778,3.015
		l-2.026,5.562c-0.092,0.257-0.338,0.427-0.612,0.427l-3.579,0.002V31.84c0-1.066-0.869-1.934-1.935-1.934h-1.292
		c-0.354,0-0.644,0.289-0.644,0.645v10.321c0,0.356,0.29,0.647,0.644,0.647h1.292c1.066,0,1.935-0.869,1.935-1.938V37.65
		l3.579-0.007c1.895,0,3.602-1.197,4.249-2.976l1.983-5.444c1.135-0.16,2.166-0.82,2.778-1.856l7.182,2.563
		c0.363,0.133,0.732,0.194,1.101,0.194c1.108,0,2.163-0.576,2.752-1.537l1.276,0.461c0.142,0.055,0.291,0.079,0.439,0.079
		c0.188,0,0.371-0.039,0.544-0.119c0.314-0.145,0.547-0.404,0.666-0.727l1.769-4.854c0.216-0.592-0.033-1.238-0.551-1.548
		l2.066-0.964C44.302,20.366,44.449,19.652,44.433,19.274z M11.999,39.581c0,0.354-0.289,0.647-0.646,0.647h-0.645v-9.032h0.645
		c0.356,0,0.646,0.288,0.646,0.644V39.581z M19.902,34.224c-0.459,1.275-1.681,2.13-3.036,2.13l-3.579,0.004v-1.291l3.579-0.003
		c0.813,0,1.545-0.512,1.825-1.279l1.851-5.087c0.214,0.128,0.439,0.238,0.683,0.327c0.171,0.062,0.343,0.113,0.517,0.147
		L19.902,34.224z M22.638,27.967c-0.014,0-0.028,0-0.044,0c-0.308,0.008-0.617-0.044-0.928-0.158
		c-0.357-0.131-0.671-0.329-0.925-0.579c-0.024-0.03-0.051-0.054-0.08-0.079c-0.478-0.513-0.737-1.207-0.69-1.93l4.658,1.695
		C24.16,27.566,23.421,27.943,22.638,27.967z M40.395,22.989l-1.768,4.847l-1.215-0.441l1.677-4.598l0.343-0.158L40.395,22.989z
		 M42.578,19.748l-3.451,1.608c0,0,0,0-0.001,0l-0.825,0.387c0,0,0,0-0.003,0l-0.966,0.449c-1.138,0.53-3.093,0.616-4.271,0.189
		l-11.218-4.005c-0.338-0.121-0.709,0.052-0.827,0.385c-0.124,0.337,0.049,0.704,0.386,0.828l11.219,4
		c0.648,0.24,1.448,0.355,2.266,0.355c0.893,0,1.806-0.138,2.561-0.407l-1.465,4.022c-0.366,1.004-1.479,1.521-2.481,1.158
		l-20.315-7.315c-1.001-0.363-1.521-1.476-1.157-2.481l1.106-3.03c0.368,0.564,0.916,1.021,1.599,1.271l0.608,0.22
		c0.33,0.121,0.701-0.052,0.825-0.388c0.119-0.333-0.051-0.702-0.386-0.826l-0.607-0.221c-1.004-0.364-1.521-1.478-1.158-2.482
		l0.22-0.604l0,0l0.666-1.819c0.367-1.003,1.477-1.518,2.479-1.158l25.164,9.081c0.413,0.15,0.566,0.306,0.599,0.366
		C43.115,19.392,42.976,19.561,42.578,19.748z"/>
	<path fill="#FFFFFF" d="M19.417,17.494l-1.213-0.441c-0.334-0.123-0.704,0.05-0.827,0.386c-0.121,0.332,0.051,0.706,0.386,0.829
		l1.213,0.44c0.073,0.026,0.148,0.039,0.219,0.039c0.263,0,0.512-0.163,0.607-0.428C19.926,17.988,19.749,17.615,19.417,17.494z"/>
</g>
</svg>
