<?xml version="1.0" encoding="utf-8"?>
<!-- Generator: Adobe Illustrator 16.0.0, SVG Export Plug-In . SVG Version: 6.00 Build 0)  -->
<!DOCTYPE svg PUBLIC "-//W3C//DTD SVG 1.1//EN" "http://www.w3.org/Graphics/SVG/1.1/DTD/svg11.dtd">
<svg version="1.1" id="Слой_1" xmlns="http://www.w3.org/2000/svg" xmlns:xlink="http://www.w3.org/1999/xlink" x="0px" y="0px"
	 width="25px" height="25px" viewBox="0 0 25 25" enable-background="new 0 0 25 25" xml:space="preserve">
<g>
	<path fill="#62B2E4" d="M19.503,9.623h-0.836v-3.27c0-1.658-0.644-3.216-1.816-4.389c-1.172-1.171-2.731-1.818-4.387-1.818
		c-3.423,0-6.207,2.785-6.207,6.207v3.27H5.421c-0.879,0-1.593,0.712-1.593,1.592v12.192C3.828,24.282,4.542,25,5.421,25h14.082
		c0.878,0,1.593-0.718,1.593-1.594V11.214C21.096,10.335,20.381,9.623,19.503,9.623z M7.202,6.353c0-2.9,2.362-5.259,5.262-5.259
		c1.405,0,2.725,0.546,3.717,1.54c0.996,0.994,1.542,2.315,1.542,3.719v3.27h-0.876v-3.27c0-2.415-1.967-4.383-4.383-4.383
		c-2.415,0-4.383,1.968-4.383,4.383v3.27H7.202V6.353z M15.896,9.623H9.027v-3.27c0-1.892,1.541-3.434,3.436-3.434
		c1.892,0,3.433,1.542,3.433,3.434V9.623z M5.421,10.57h14.082c0.357,0,0.646,0.289,0.646,0.644v0.187H4.775v-0.187
		C4.775,10.859,5.065,10.57,5.421,10.57z M20.149,12.35v9.921H4.775V12.35H20.149z M19.503,24.053H5.421
		c-0.356,0-0.646-0.29-0.646-0.646v-0.188h15.375v0.188C20.149,23.763,19.86,24.053,19.503,24.053z"/>
	<path fill="#62B2E4" d="M11.261,17.893v0.998c0,0.662,0.541,1.199,1.203,1.199c0.659,0,1.199-0.537,1.199-1.199V17.89
		c0.436-0.356,0.693-0.896,0.693-1.466c0-0.517-0.217-1.021-0.595-1.38c-0.386-0.362-0.893-0.542-1.417-0.507
		c-0.96,0.058-1.723,0.828-1.774,1.785C10.538,16.935,10.799,17.513,11.261,17.893z M11.516,16.373
		c0.024-0.47,0.412-0.863,0.883-0.894c0.021-0.002,0.042-0.002,0.064-0.002c0.243,0,0.469,0.091,0.648,0.256
		c0.194,0.184,0.297,0.428,0.297,0.69c0,0.338-0.172,0.642-0.462,0.815c-0.144,0.086-0.23,0.238-0.23,0.407v1.244
		c0,0.139-0.113,0.253-0.252,0.253c-0.14,0-0.255-0.114-0.255-0.253v-1.244c0-0.169-0.086-0.321-0.23-0.407
		C11.675,17.06,11.498,16.729,11.516,16.373z"/>
</g>
</svg>
