<?xml version="1.0" encoding="utf-8"?>
<!-- Generator: Adobe Illustrator 16.0.0, SVG Export Plug-In . SVG Version: 6.00 Build 0)  -->
<!DOCTYPE svg PUBLIC "-//W3C//DTD SVG 1.1//EN" "http://www.w3.org/Graphics/SVG/1.1/DTD/svg11.dtd">
<svg version="1.1" id="Слой_1" xmlns="http://www.w3.org/2000/svg" xmlns:xlink="http://www.w3.org/1999/xlink" x="0px" y="0px"
	 width="25px" height="25px" viewBox="0 0 25 25" enable-background="new 0 0 25 25" xml:space="preserve">
<path fill="#62B2E4" d="M14.717,21.035h-4.431c-0.262,0-0.471,0.211-0.473,0.47c0.002,0.262,0.213,0.47,0.473,0.47h4.431
	c0.259,0,0.469-0.208,0.469-0.47C15.186,21.246,14.976,21.035,14.717,21.035z M14.223,22.549h-3.445c-0.26,0-0.47,0.211-0.47,0.47
	s0.209,0.468,0.47,0.47h3.445c0.262-0.002,0.47-0.211,0.47-0.47S14.484,22.549,14.223,22.549z M15.314,10.532
	c-0.003-0.006-0.003-0.012-0.003-0.016c-0.006-0.017-0.015-0.03-0.024-0.045c-0.009-0.022-0.017-0.043-0.029-0.064
	c-0.015-0.019-0.029-0.039-0.045-0.057c-0.015-0.015-0.027-0.028-0.044-0.042c-0.019-0.018-0.038-0.033-0.06-0.046
	c-0.006-0.004-0.012-0.009-0.019-0.013l0,0c-0.012-0.008-0.026-0.011-0.041-0.017c-0.018-0.007-0.039-0.018-0.06-0.023
	c-0.03-0.009-0.063-0.012-0.093-0.015c-0.012,0-0.023-0.005-0.032-0.005c-0.023,0-0.045,0.008-0.066,0.009
	c-0.02,0.003-0.041,0.004-0.059,0.01c-0.006,0.001-0.012,0-0.018,0.003h-0.004c-0.27,0.089-0.505,0.207-0.716,0.314l-0.006,0.001
	l-0.018,0.01c-0.221,0.111-0.414,0.199-0.548,0.198c-0.066-0.001-0.116-0.016-0.167-0.056l0,0l-0.47-0.382
	c-0.017-0.015-0.042-0.022-0.06-0.035c-0.021-0.011-0.038-0.025-0.059-0.033c-0.058-0.024-0.113-0.037-0.173-0.039H12.5
	c-0.062-0.001-0.121,0.015-0.182,0.04c-0.014,0.006-0.029,0.017-0.044,0.025c-0.024,0.014-0.048,0.021-0.069,0.039l-0.47,0.382
	c-0.051,0.04-0.102,0.056-0.167,0.056c-0.134,0.001-0.327-0.085-0.549-0.198l-0.015-0.009l-0.006-0.001
	c-0.212-0.107-0.446-0.225-0.72-0.314l0,0c-0.007-0.003-0.013-0.001-0.021-0.003c-0.011-0.005-0.024-0.005-0.036-0.006
	c-0.028-0.006-0.057-0.014-0.085-0.014c-0.013,0-0.025,0.005-0.037,0.006c-0.031,0.003-0.061,0.006-0.091,0.015
	c-0.018,0.004-0.036,0.014-0.052,0.019c-0.017,0.008-0.033,0.012-0.049,0.02l0,0c-0.007,0.004-0.014,0.011-0.021,0.016
	c-0.018,0.01-0.034,0.023-0.05,0.039c-0.02,0.017-0.037,0.033-0.054,0.052c-0.014,0.015-0.025,0.03-0.036,0.048
	c-0.016,0.025-0.029,0.052-0.042,0.081c-0.005,0.011-0.012,0.019-0.015,0.031v-0.001c-0.001,0.004-0.001,0.008-0.003,0.013
	c-0.012,0.042-0.019,0.083-0.019,0.126c0,0.001-0.001,0.004-0.001,0.006l0,0c0,0.001,0,0.001,0,0.001
	c0,0.043,0.009,0.088,0.021,0.131c0.005,0.013,0.01,0.024,0.015,0.036c0.007,0.02,0.012,0.04,0.022,0.058v0.001
	c0.694,1.249,1.083,2.254,1.3,3.342c0.22,1.103,0.267,2.296,0.268,3.9c0,0.259,0.209,0.465,0.468,0.465s0.468-0.208,0.468-0.465
	c-0.004-1.664-0.05-2.913-0.283-4.083c-0.163-0.814-0.418-1.592-0.804-2.434c0.144,0.049,0.289,0.083,0.44,0.083
	c0.241,0.001,0.489-0.084,0.744-0.292l0.172-0.142l0.173,0.143c0.256,0.208,0.503,0.293,0.744,0.293c0.151,0,0.294-0.035,0.44-0.084
	c-0.385,0.842-0.641,1.62-0.804,2.434c-0.231,1.17-0.279,2.419-0.282,4.083c0,0.259,0.207,0.465,0.467,0.465s0.467-0.206,0.47-0.465
	c0-1.604,0.048-2.798,0.265-3.901c0.22-1.084,0.606-2.092,1.3-3.341c0.009-0.013,0.012-0.028,0.019-0.042
	c0.008-0.021,0.018-0.041,0.023-0.062c0.006-0.025,0.01-0.05,0.011-0.076c0-0.016,0.01-0.033,0.01-0.05
	c0-0.02-0.01-0.042-0.011-0.063C15.32,10.575,15.32,10.552,15.314,10.532z M12.5,2.838c0.259,0,0.472-0.209,0.472-0.468V0.892
	c0-0.259-0.213-0.468-0.472-0.468c-0.258,0-0.469,0.209-0.469,0.468V2.37C12.031,2.629,12.242,2.838,12.5,2.838z M17.298,6.438
	l0.063-0.064c-0.631-0.629-1.389-1.139-2.233-1.49l0,0c-0.81-0.334-1.698-0.522-2.627-0.522c-0.925,0-1.814,0.188-2.625,0.522
	L9.874,4.885c-0.845,0.35-1.6,0.859-2.231,1.489C7.015,7.001,6.508,7.755,6.159,8.591L6.152,8.604v0.003
	c-0.339,0.809-0.523,1.698-0.523,2.626c0,0.742,0.119,1.458,0.338,2.13c0.226,0.693,0.561,1.343,0.984,1.92
	c0.72,0.985,1.297,1.617,1.741,2.105l0.003,0.001c0.394,0.432,0.673,0.739,0.852,1.089c0.18,0.35,0.267,0.746,0.267,1.373
	c0,0.26,0.211,0.469,0.473,0.471h4.462c0.259-0.002,0.468-0.211,0.47-0.471c0-0.635,0.084-1.032,0.262-1.384
	c0.18-0.353,0.459-0.663,0.856-1.103c0.44-0.489,1.012-1.121,1.714-2.082c0.423-0.577,0.759-1.225,0.984-1.92
	c0.221-0.672,0.339-1.388,0.339-2.13c0-1.896-0.773-3.616-2.014-4.859L17.298,6.438z M18.14,13.076
	c-0.193,0.601-0.481,1.16-0.845,1.655c-0.684,0.934-1.229,1.538-1.656,2.009c-0.83,0.912-1.265,1.417-1.345,2.645h-3.558
	c-0.079-1.222-0.523-1.727-1.351-2.625v-0.003c-0.435-0.476-0.993-1.087-1.679-2.025c-0.363-0.497-0.651-1.056-0.847-1.657
	c-0.189-0.577-0.29-1.195-0.29-1.84c0-0.805,0.16-1.574,0.447-2.268l0.001-0.005l0.006-0.018C7.326,8.229,7.763,7.581,8.306,7.04
	l0,0C8.855,6.491,9.507,6.048,10.23,5.75h0.001c0.696-0.29,1.463-0.449,2.268-0.449c0.807,0,1.577,0.159,2.271,0.449l0,0
	c0.722,0.297,1.376,0.739,1.924,1.289l0,0c1.074,1.073,1.737,2.557,1.737,4.194C18.432,11.879,18.33,12.498,18.14,13.076z
	 M13.732,24.063h-2.464c-0.257,0-0.469,0.207-0.469,0.47c0,0.258,0.21,0.467,0.469,0.467h2.464c0.258,0,0.47-0.209,0.47-0.467
	C14.202,24.271,13.99,24.063,13.732,24.063z M16.614,3.939L16.614,3.939c0,0,0,0,0.003,0c0,0.001,0,0.001,0,0.001
	c0.071,0.042,0.151,0.063,0.232,0.063c0.16,0,0.317-0.086,0.403-0.236l0,0l0.741-1.279l0,0c0.042-0.073,0.063-0.153,0.063-0.233
	c0-0.161-0.084-0.318-0.235-0.403c0-0.001,0-0.001,0-0.001l0,0c-0.074-0.042-0.154-0.063-0.235-0.063
	c-0.159,0-0.317,0.085-0.403,0.236V2.022l-0.741,1.279l0,0c-0.042,0.073-0.06,0.153-0.06,0.232
	C16.38,3.695,16.466,3.853,16.614,3.939z M7.006,2.487l0.741,1.279l0,0c0.086,0.15,0.244,0.236,0.406,0.236
	c0.079,0,0.159-0.021,0.232-0.063V3.94c0.001-0.001,0.001-0.001,0.001-0.001C8.537,3.853,8.62,3.695,8.62,3.533
	c0-0.079-0.019-0.159-0.061-0.232l0,0L7.82,2.022c-0.088-0.15-0.246-0.233-0.407-0.233c-0.079,0-0.16,0.019-0.232,0.061H7.179
	c-0.15,0.088-0.233,0.245-0.233,0.408C6.945,2.334,6.964,2.415,7.006,2.487L7.006,2.487z M5.203,6.311v0.001L3.922,5.575l0,0
	C3.847,5.532,3.768,5.513,3.688,5.513c-0.162,0-0.32,0.083-0.406,0.235C3.241,5.819,3.22,5.899,3.22,5.978
	c0,0.162,0.085,0.321,0.236,0.408l0,0l1.279,0.737C4.81,7.166,4.89,7.186,4.969,7.186c0.162,0,0.32-0.083,0.406-0.235
	c0.042-0.073,0.061-0.153,0.061-0.232C5.436,6.556,5.352,6.397,5.203,6.311z M21.718,5.746L21.718,5.746
	c-0.086-0.15-0.244-0.233-0.404-0.233c-0.081,0-0.16,0.019-0.234,0.062L19.8,6.313V6.311c-0.152,0.086-0.235,0.244-0.235,0.406
	c0,0.08,0.019,0.16,0.063,0.233l0,0c0.083,0.152,0.244,0.235,0.404,0.235c0.081,0,0.161-0.02,0.232-0.063l1.282-0.737
	c0.148-0.087,0.234-0.244,0.234-0.406C21.78,5.899,21.76,5.819,21.718,5.746z M10.15,7.575L10.15,7.575
	c0.227-0.153,0.465-0.283,0.712-0.388l0,0c0.251-0.105,0.521-0.192,0.799-0.246V6.94c0.265-0.053,0.544-0.082,0.839-0.082
	c0.259-0.001,0.472-0.209,0.472-0.47c0-0.259-0.213-0.468-0.472-0.468c-0.342,0-0.687,0.036-1.022,0.101v0.001
	c-0.341,0.068-0.669,0.171-0.98,0.303l0,0c-0.311,0.13-0.605,0.289-0.873,0.47v0.002c-0.279,0.189-0.535,0.4-0.766,0.627v0.001
	C8.627,7.659,8.416,7.914,8.23,8.192L8.229,8.195C8.045,8.466,7.888,8.758,7.757,9.064l0,0c-0.024,0.06-0.036,0.12-0.036,0.18
	c0,0.183,0.105,0.359,0.286,0.433l0,0C8.066,9.7,8.127,9.712,8.188,9.712c0.183,0,0.357-0.107,0.433-0.286l0,0
	C8.724,9.18,8.855,8.945,9.005,8.719l0.003-0.001c0.15-0.223,0.325-0.434,0.517-0.626H9.522C9.719,7.898,9.93,7.723,10.15,7.575z
	 M8.621,12.706c-0.107-0.254-0.192-0.523-0.247-0.8c-0.054-0.265-0.083-0.546-0.083-0.838c0-0.259-0.209-0.467-0.47-0.469
	c-0.259,0.001-0.469,0.209-0.469,0.469c0,0.346,0.036,0.688,0.104,1.021l0,0c0.065,0.34,0.168,0.669,0.3,0.981
	c0.077,0.179,0.25,0.287,0.433,0.287c0.061,0,0.124-0.012,0.182-0.038l0,0c0.178-0.075,0.286-0.249,0.286-0.432
	C8.657,12.828,8.645,12.766,8.621,12.706L8.621,12.706z"/>
</svg>
