<?xml version="1.0" encoding="utf-8"?>
<!-- Generator: Adobe Illustrator 16.0.0, SVG Export Plug-In . SVG Version: 6.00 Build 0)  -->
<!DOCTYPE svg PUBLIC "-//W3C//DTD SVG 1.1//EN" "http://www.w3.org/Graphics/SVG/1.1/DTD/svg11.dtd">
<svg version="1.1" id="Слой_1" xmlns="http://www.w3.org/2000/svg" xmlns:xlink="http://www.w3.org/1999/xlink" x="0px" y="0px"
	 width="25px" height="25px" viewBox="0 0 25 25" enable-background="new 0 0 25 25" xml:space="preserve">
<path fill="#62B2E4" d="M15.729,12.304h0.091h3.043v-1.085h-3.134V12.304z M15.729,9.519h0.091h3.043V8.432h-3.134V9.519z
	 M14.709,12.872V0.066h-6.25v12.805c-1.974,1.096-3.321,3.189-3.321,5.616c0,3.563,2.885,6.447,6.449,6.447
	c3.563,0,6.447-2.885,6.447-6.447C18.035,16.061,16.683,13.968,14.709,12.872z M9.547,1.154h4.074v4.488H9.547V1.154z M11.588,23.85
	c-2.965-0.008-5.356-2.401-5.362-5.362c0-2.113,1.232-3.922,3.019-4.798l0.254-0.122l0.048-0.027V6.729h4.074l0.006,6.811
	l0.303,0.149c1.786,0.876,3.018,2.682,3.018,4.798C16.942,21.448,14.545,23.842,11.588,23.85z M15.729,6.729h0.091h3.043V5.642
	h-3.134V6.729z M15.729,3.942h0.091h3.043V2.857h-3.134V3.942z M15.729,1.154h0.091h3.043V0.066h-3.134V1.154z"/>
</svg>
