<?xml version="1.0" encoding="utf-8"?>
<!-- Generator: Adobe Illustrator 16.0.0, SVG Export Plug-In . SVG Version: 6.00 Build 0)  -->
<!DOCTYPE svg PUBLIC "-//W3C//DTD SVG 1.1//EN" "http://www.w3.org/Graphics/SVG/1.1/DTD/svg11.dtd">
<svg version="1.1" id="Слой_1" xmlns="http://www.w3.org/2000/svg" xmlns:xlink="http://www.w3.org/1999/xlink" x="0px" y="0px"
	 width="50px" height="50px" viewBox="0 0 50 50" enable-background="new 0 0 50 50" xml:space="preserve">
<g>
	<g>
		<path fill="#FFFFFF" d="M22.415,18.404c1.065,0,1.933-0.868,1.933-1.936c0-1.062-0.867-1.93-1.933-1.93
			c-1.063,0-1.933,0.868-1.933,1.93C20.482,17.536,21.352,18.404,22.415,18.404z"/>
		<path fill="#FFFFFF" d="M11.588,36.788c0.118,0,0.235-0.024,0.347-0.074l6.154-2.719c0.218-0.095,0.386-0.278,0.464-0.503
			l1.726-4.948l3.592,3.161l-0.396,5.158c-0.04,0.47,0.315,0.887,0.787,0.922c0.022,0.004,0.043,0.004,0.066,0.004
			c0.442,0,0.823-0.342,0.854-0.793l0.43-5.587c0.023-0.266-0.087-0.526-0.285-0.706l-4.5-3.966l1.054-5.406l2.777,2.06
			c0.35,0.257,0.852,0.214,1.148-0.118l2.575-2.862c0.322-0.357,0.293-0.896-0.063-1.212c-0.348-0.32-0.895-0.29-1.213,0.061
			l-2.058,2.284l-3.235-2.398c-0.02-0.016-0.043-0.016-0.06-0.025c-0.089-0.058-0.18-0.092-0.283-0.112
			c-0.043-0.011-0.082-0.013-0.129-0.013c-0.043-0.003-0.084-0.02-0.129-0.018l-4.291,0.436c-0.277,0.025-0.525,0.187-0.663,0.431
			l-1.86,3.295c-0.234,0.411-0.09,0.938,0.325,1.173c0.136,0.074,0.281,0.108,0.423,0.108c0.296,0,0.589-0.159,0.746-0.437
			l1.644-2.906l2.696-0.268l-1.17,6.022l-2.01,5.75l-5.817,2.569c-0.43,0.189-0.628,0.697-0.433,1.13
			C10.941,36.597,11.261,36.788,11.588,36.788z"/>
		<path fill="#FFFFFF" d="M33.966,26.524l-3.133-3.133c-0.301-0.299-0.794-0.299-1.106,0c-0.299,0.299-0.299,0.794,0,1.106
			l1.807,1.806h-5.599v1.533h5.599l-1.962,1.975c-0.301,0.302-0.301,0.794,0,1.106c0.155,0.154,0.351,0.234,0.543,0.234
			c0.197,0,0.406-0.08,0.546-0.234l3.306-3.303c0.142-0.142,0.234-0.351,0.234-0.547C34.2,26.86,34.122,26.668,33.966,26.524z"/>
	</g>
	<polygon fill="#FFFFFF" points="38.897,7.993 38.352,7.446 38.269,7.411 17.946,7.411 17.863,7.446 17.316,7.993 17.282,8.077 
		17.282,16.101 17.316,16.184 17.398,16.218 18.492,16.218 18.574,16.184 18.609,16.101 18.609,8.739 37.604,8.739 37.604,41.057 
		18.561,41.057 18.561,38.25 18.526,38.168 18.443,38.133 17.351,38.133 17.268,38.168 17.233,38.25 17.233,41.721 17.268,41.804 
		17.813,42.352 17.896,42.385 38.269,42.385 38.352,42.352 38.897,41.804 38.932,41.721 38.932,8.077 	"/>
</g>
</svg>
