<?xml version="1.0" encoding="utf-8"?>
<!-- Generator: Adobe Illustrator 16.0.0, SVG Export Plug-In . SVG Version: 6.00 Build 0)  -->
<!DOCTYPE svg PUBLIC "-//W3C//DTD SVG 1.1//EN" "http://www.w3.org/Graphics/SVG/1.1/DTD/svg11.dtd">
<svg version="1.1" id="Слой_1" xmlns="http://www.w3.org/2000/svg" xmlns:xlink="http://www.w3.org/1999/xlink" x="0px" y="0px"
	 width="50px" height="50px" viewBox="0 0 50 50" enable-background="new 0 0 50 50" xml:space="preserve">
<g>
	<path fill="#FFFFFF" d="M35.925,7.967c-0.146-0.115-0.343-0.158-0.521-0.111l-8.393,2.099c-0.351-1.559-1.744-2.727-3.405-2.727
		c-1.714,0-3.145,1.245-3.435,2.876h-2.541c-2.378,0-4.315,1.868-4.315,4.168c0,0.337,0.275,0.613,0.611,0.613
		c0.337,0,0.613-0.275,0.613-0.613c0-1.622,1.384-2.943,3.091-2.943h2.483v1.224h-2.483c-0.337,0-0.613,0.273-0.613,0.61
		c0,0.338,0.276,0.612,0.613,0.612h2.483l-0.005,2.212c-1.375,0.63-2.549,1.614-3.419,2.868c-0.968,1.405-1.48,3.053-1.48,4.763
		l-0.008,18.373c0,0.339,0.275,0.614,0.613,0.614h15.558c0.337,0,0.611-0.275,0.611-0.614l0.007-18.373
		c0-1.71-0.514-3.358-1.481-4.763c-0.868-1.254-2.046-2.238-3.42-2.868l0.007-1.127l8.307,2.074
		c0.047,0.011,0.098,0.017,0.146,0.017c0.136,0,0.268-0.043,0.375-0.127c0.149-0.118,0.236-0.294,0.236-0.482V8.45
		C36.161,8.261,36.074,8.082,35.925,7.967z M23.606,8.45c1.25,0,2.267,1.018,2.267,2.267l-0.007,5.062h-4.532l0.005-5.062
		C21.338,9.468,22.357,8.45,23.606,8.45z M16.426,41.379l0.007-1.924h14.335l-0.006,1.924H16.426z M30.742,23.006H20.714
		c-0.341,0-0.611,0.274-0.611,0.611c0,0.338,0.27,0.614,0.611,0.614h10.053v14.005H16.433V24.23h1.833
		c0.338,0,0.613-0.276,0.613-0.614c0-0.337-0.274-0.611-0.613-0.611h-1.808c0.224-2.66,1.893-4.965,4.388-6.004h5.506
		C28.852,18.041,30.517,20.346,30.742,23.006z M34.937,15.556l-7.84-1.959v-2.403l7.84-1.959V15.556z"/>
	<path fill="#FFFFFF" d="M20.282,35.688c0.856,0.865,2.003,1.323,3.319,1.323c1.312,0,2.459-0.458,3.32-1.323
		c0.884-0.892,1.388-2.166,1.379-3.485c-0.02-2.46-1.76-4.649-1.834-4.744c-0.12-0.147-0.303-0.234-0.497-0.227
		c-0.19,0.004-0.368,0.101-0.478,0.255c0,0-0.054,0.074-0.125,0.177c-0.301-0.651-0.743-1.45-1.328-2.052
		c-0.114-0.118-0.274-0.187-0.438-0.187c-0.165,0-0.324,0.069-0.438,0.187c-0.585,0.602-1.03,1.4-1.33,2.052
		c-0.071-0.103-0.12-0.177-0.12-0.177c-0.114-0.154-0.29-0.251-0.481-0.255c-0.193-0.008-0.377,0.079-0.496,0.227
		c-0.076,0.095-1.814,2.284-1.833,4.744C18.891,33.521,19.395,34.796,20.282,35.688z M21.22,28.912l0.147,0.208
		c0.176,0.249,0.317,0.444,0.655,0.428c0.243-0.016,0.452-0.171,0.538-0.398c0.002-0.005,0.006-0.018,0.013-0.039
		c0.111-0.329,0.462-1.301,1.029-2.108c0.564,0.808,0.917,1.779,1.027,2.108c0.005,0.021,0.011,0.034,0.011,0.039
		c0.109,0.282,0.398,0.445,0.694,0.386c0.24-0.043,0.321-0.161,0.502-0.415l0.144-0.208c0.458,0.748,1.087,2.006,1.096,3.296
		c0.007,1.001-0.364,1.958-1.024,2.618c-0.622,0.629-1.471,0.96-2.45,0.96c-0.98,0-1.827-0.331-2.451-0.96
		c-0.658-0.66-1.034-1.617-1.024-2.618C20.135,30.918,20.762,29.66,21.22,28.912z"/>
</g>
</svg>
