<?xml version="1.0" encoding="utf-8"?>
<!-- Generator: Adobe Illustrator 16.0.0, SVG Export Plug-In . SVG Version: 6.00 Build 0)  -->
<!DOCTYPE svg PUBLIC "-//W3C//DTD SVG 1.1//EN" "http://www.w3.org/Graphics/SVG/1.1/DTD/svg11.dtd">
<svg version="1.1" id="Слой_1" xmlns="http://www.w3.org/2000/svg" xmlns:xlink="http://www.w3.org/1999/xlink" x="0px" y="0px"
	 width="100px" height="100px" viewBox="0 0 100 100" enable-background="new 0 0 100 100" xml:space="preserve">
<path fill="#FFFFFF" d="M13.505,74.016c0.055,0.139,0.127,0.271,0.222,0.399l6.868,7.45h28.225v-5.023l4.626,5.023h28.224V53.892
	l-0.1-0.571h-0.267c-0.04-0.038-0.077-0.083-0.116-0.116l-6.868-6.348l-0.084-0.073c-0.121-0.094-0.265-0.17-0.465-0.243
	c-0.132-0.045-0.277-0.071-0.31-0.06l-16.703-0.011V23.535l-0.1-0.571h-0.265c-0.04-0.044-0.073-0.083-0.116-0.117l-6.87-6.353
	l-0.089-0.067c-0.122-0.098-0.265-0.177-0.454-0.249c-0.139-0.044-0.277-0.066-0.316-0.056L21.354,16.1v27.083
	c0.005,0.138,0.033,0.283,0.094,0.477c0.049,0.141,0.121,0.271,0.222,0.394l2.22,2.412l-10.48-0.006l0.005,27.082
	C13.422,73.678,13.444,73.817,13.505,74.016 M30.345,22.964l-3.86-3.855h21.316l4.175,3.855H30.345z M56.136,56.328h22.525v22.53
	H56.136V56.328z M31.197,46.469V34.668h0.029v-8.696h22.522v8.696h0.035v14.397H31.197V46.469z M55.251,53.32l-1.813-1.811h3.318
	v-2.046h15.955l4.176,3.856H55.251z M45.812,78.858h-22.53v-22.53h22.53V78.858z M28.534,51.51h13.539l1.96,1.811H22.401
	l-3.855-3.856h8.11L28.534,51.51z M48.438,53.309v-2.608l0.205,0.237l0.499,0.572l4.403,5.034v21.672l-4.725-5.285l-0.382-0.422
	V53.309z M23.481,20.072l5.102,5.845v21.667l-0.499-0.562l-0.499-0.553l-4.104-4.593V20.072z M20.646,56.544v21.672l-5.107-5.707
	V50.701L20.646,56.544z"/>
<path fill="#FFFFFF" d="M34.321,45.704c0.239,0.122,0.5,0.178,0.755,0.178c0.625,0,1.229-0.344,1.528-0.945l1.352-2.723h9.555
	l1.359,2.723c0.292,0.601,0.897,0.945,1.522,0.945c0.255,0,0.515-0.056,0.76-0.178c0.841-0.42,1.18-1.44,0.763-2.283l-4.353-8.752
	l-3.301-6.64c-0.012-0.013-0.018-0.024-0.027-0.035c-0.029-0.062-0.063-0.11-0.096-0.161c-0.034-0.04-0.055-0.083-0.088-0.123
	c-0.039-0.044-0.078-0.083-0.116-0.121s-0.078-0.079-0.123-0.118c-0.038-0.033-0.082-0.06-0.127-0.088
	c-0.049-0.033-0.099-0.065-0.155-0.094c-0.012-0.006-0.021-0.021-0.039-0.027c-0.033-0.017-0.066-0.023-0.105-0.039
	c-0.055-0.021-0.105-0.045-0.16-0.062c-0.056-0.017-0.111-0.027-0.167-0.038c-0.051-0.011-0.105-0.017-0.159-0.022
	c-0.051-0.007-0.106-0.007-0.167-0.007c-0.055,0-0.105,0-0.16,0.007c-0.057,0.005-0.111,0.011-0.167,0.022
	c-0.049,0.011-0.105,0.021-0.16,0.038c-0.056,0.017-0.111,0.04-0.167,0.062c-0.034,0.016-0.067,0.022-0.1,0.039
	c-0.017,0.006-0.027,0.017-0.039,0.021c-0.055,0.035-0.111,0.067-0.161,0.105c-0.044,0.027-0.083,0.05-0.123,0.083
	c-0.044,0.039-0.083,0.08-0.127,0.123c-0.04,0.038-0.077,0.072-0.112,0.116c-0.032,0.039-0.06,0.083-0.087,0.127
	c-0.034,0.049-0.066,0.1-0.095,0.156c-0.011,0.01-0.021,0.021-0.028,0.038l-3.301,6.637l-4.354,8.752
	C33.137,44.264,33.481,45.284,34.321,45.704 M42.736,32.608l1.025,2.061l2.056,4.144h-6.166l2.06-4.144L42.736,32.608z"/>
<path fill="#FFFFFF" d="M31.669,77.02h3.911c3.412,0,6.193-2.775,6.193-6.188c0-2.3-1.263-4.306-3.124-5.374
	c0.56-0.82,0.893-1.817,0.893-2.887c0-2.83-2.299-5.129-5.13-5.129h-2.742c-1.208,0-2.228,0.797-2.581,1.889
	c-0.095,0.211-0.151,0.443-0.151,0.687v14.364c0,0.133,0.022,0.262,0.051,0.387C29.214,76.044,30.329,77.02,31.669,77.02
	 M35.58,73.617h-3.235v-5.572h3.235c1.541,0,2.786,1.245,2.786,2.787C38.366,72.365,37.12,73.617,35.58,73.617 M36.139,62.571
	c0,0.948-0.776,1.723-1.728,1.723h-2.066v-3.451h2.066C35.363,60.843,36.139,61.618,36.139,62.571"/>
<path fill="#FFFFFF" d="M73.039,71.567c-1.107,1.042-2.56,1.618-4.083,1.618c-3.285,0-5.955-2.671-5.955-5.955
	c0-3.285,2.67-5.955,5.955-5.955c1.457,0,2.858,0.531,3.95,1.502c0.702,0.619,1.777,0.559,2.404-0.145
	c0.619-0.703,0.558-1.778-0.145-2.404c-1.713-1.518-3.921-2.354-6.21-2.354c-5.158,0-9.356,4.199-9.356,9.356
	c0,5.162,4.192,9.362,9.356,9.362c2.394,0,4.676-0.909,6.414-2.549c0.688-0.643,0.722-1.724,0.073-2.404
	C74.799,70.952,73.726,70.92,73.039,71.567"/>
</svg>
