<?xml version="1.0" encoding="utf-8"?>
<!-- Generator: Adobe Illustrator 16.0.0, SVG Export Plug-In . SVG Version: 6.00 Build 0)  -->
<!DOCTYPE svg PUBLIC "-//W3C//DTD SVG 1.1//EN" "http://www.w3.org/Graphics/SVG/1.1/DTD/svg11.dtd">
<svg version="1.1" id="Layer_1" xmlns="http://www.w3.org/2000/svg" xmlns:xlink="http://www.w3.org/1999/xlink" x="0px" y="0px"
	 width="60px" height="60px" viewBox="0 0 60 60" enable-background="new 0 0 60 60" xml:space="preserve">
<path fill="#D86B4E" d="M28.24,39.554c-5.172,0.139-11.077,0.52-17.785,1.242c-2.841,0.306-5.827,0.676-8.962,1.109
	c0,0,42.671-3.121,47.396,5.447c1.077-1.137,2.382-1.953,3.719-2.536c-5.367-3.075-17.448-4.008-24.368-4.185
	c-1.76-0.047-3.187-0.044-4.082-0.014c1.412-0.064,2.773-0.11,4.082-0.139c15.969-0.335,24.408,1.938,27.908,3.257
	c2.32-0.454,4.129-0.382,4.129-0.382S51.934,38.917,28.24,39.554z M24.075,40.622c-0.15,0.005-0.301,0.014-0.452,0.019
	C23.75,40.634,23.903,40.626,24.075,40.622z"/>
<linearGradient id="SVGID_1_" gradientUnits="userSpaceOnUse" x1="8.376" y1="14.6387" x2="41.4189" y2="14.6387">
	<stop  offset="0" style="stop-color:#FFFFFF"/>
	<stop  offset="1" style="stop-color:#57AD62"/>
</linearGradient>
<path fill="url(#SVGID_1_)" d="M8.376,19.611L24.198,8.039l0.8-0.574l0.775,0.574l15.646,11.448l-1.448,2.224L24.998,10.738
	L9.851,21.812C9.851,21.812,9.432,21.2,8.376,19.611L8.376,19.611z"/>
<linearGradient id="SVGID_2_" gradientUnits="userSpaceOnUse" x1="11.5508" y1="26.6108" x2="38.4189" y2="26.6108">
	<stop  offset="0" style="stop-color:#FFFFFF"/>
	<stop  offset="1" style="stop-color:#C95344"/>
</linearGradient>
<polygon fill-rule="evenodd" clip-rule="evenodd" fill="url(#SVGID_2_)" points="11.551,22.812 24.998,12.963 38.419,22.812 
	38.419,40.259 11.551,40.259 "/>
<linearGradient id="SVGID_3_" gradientUnits="userSpaceOnUse" x1="20.6235" y1="27.3726" x2="29.3462" y2="27.3726">
	<stop  offset="0" style="stop-color:#FFFFFF"/>
	<stop  offset="1" style="stop-color:#CDCA4E"/>
</linearGradient>
<path fill="url(#SVGID_3_)" d="M24.998,31.734c1.199,0,2.274-0.499,3.074-1.273c0.775-0.8,1.275-1.876,1.275-3.075
	c0-1.226-0.5-2.3-1.275-3.1c-0.8-0.773-1.875-1.275-3.074-1.275c-1.224,0-2.299,0.502-3.099,1.275c-0.774,0.8-1.275,1.874-1.275,3.1
	c0,1.199,0.501,2.275,1.275,3.075C22.699,31.235,23.773,31.734,24.998,31.734L24.998,31.734z M27.121,29.511
	c-0.549,0.549-1.3,0.899-2.124,0.899c-0.849,0-1.6-0.351-2.15-0.899c-0.549-0.55-0.899-1.301-0.899-2.125
	c0-0.85,0.35-1.601,0.899-2.15c0.55-0.549,1.301-0.898,2.15-0.898c0.824,0,1.575,0.35,2.124,0.898
	c0.551,0.55,0.901,1.301,0.901,2.15C28.022,28.21,27.672,28.961,27.121,29.511L27.121,29.511z"/>
<linearGradient id="SVGID_4_" gradientUnits="userSpaceOnUse" x1="17.312" y1="27.3721" x2="32.6572" y2="27.3721">
	<stop  offset="0" style="stop-color:#FFFFFF"/>
	<stop  offset="1" style="stop-color:#E5E54B"/>
</linearGradient>
<path fill="url(#SVGID_4_)" d="M24.999,35.044c2.107,0,4.036-0.845,5.422-2.234c1.39-1.389,2.237-3.316,2.237-5.424
	c0-2.133-0.847-4.062-2.237-5.449c-1.386-1.388-3.315-2.236-5.422-2.236c-2.134,0-4.063,0.848-5.451,2.236
	c-1.387,1.388-2.236,3.316-2.236,5.449c0,2.107,0.849,4.035,2.236,5.424C20.936,34.199,22.864,35.044,24.999,35.044L24.999,35.044z
	 M29.471,31.858c-1.158,1.131-2.726,1.851-4.473,1.851c-1.75,0-3.342-0.72-4.5-1.851c-1.131-1.156-1.851-2.75-1.851-4.473
	c0-1.748,0.72-3.342,1.851-4.498c1.158-1.132,2.75-1.852,4.5-1.852c1.747,0,3.315,0.72,4.473,1.852
	c1.131,1.156,1.85,2.75,1.85,4.498C31.321,29.108,30.602,30.702,29.471,31.858L29.471,31.858z"/>
<path fill-rule="evenodd" clip-rule="evenodd" fill="#CECED3" d="M32.742,30.737c0.898,0.532,1.747,1.33,2.444,2.079
	c0.733,0.766,1.431,1.63,2.014,2.511c0.216,0.3,0.431,0.632,0.581,0.966c0.217,0.415,0.351,0.946-0.101,1.278l-4.139,3.228
	l-0.384-0.183c-0.981-0.465-1.946-0.95-2.894-1.446c-0.598-0.317-1.197-0.649-1.762-1.016c-0.382-0.233-0.965-0.615-1.165-1.031
	c-0.315-0.648-0.116-1.829,0-2.526c0.116-0.6,0.383-1.729,0.716-2.246c0.133-0.201,0.315-0.349,0.548-0.435l-2.179-1.661
	c-0.749-0.48-1.064-1.396-0.548-2.178c0.499-0.731,1.413-0.915,2.161-0.466h0.017L32.742,30.737z"/>
<path fill="#7D7E83" d="M32.483,31.732L28.22,28.9c0,0-0.663-0.405-1.084,0.24c-0.421,0.634,0.316,1.086,0.316,1.086l3.644,2.786
	c0,0-1.671-0.512-1.988-0.015c-0.316,0.496-0.934,3.026-0.617,3.688c0.331,0.679,4.835,2.862,4.97,2.862
	c0.134,0.001,3.434-2.666,3.434-2.666C37.18,36.672,34.561,32.951,32.483,31.732L32.483,31.732z"/>
<g>
	<g>
		<path fill="#D86B4E" d="M37.006,8.835L36.513,9.76c-0.211-0.479-0.608-0.806-1.074-0.818c-0.515-0.012-0.979,0.363-1.212,0.919
			l-0.541-0.805c0.409-0.711,1.07-1.172,1.795-1.152C36.097,7.919,36.641,8.278,37.006,8.835z"/>
		<path fill="#D86B4E" d="M37.918,6.917L37.448,7.8c-0.483-0.639-1.154-1.042-1.911-1.062c-0.912-0.024-1.749,0.518-2.302,1.375
			l-0.523-0.781c0.709-1.025,1.742-1.663,2.868-1.634C36.491,5.722,37.309,6.18,37.918,6.917z"/>
		<path fill="#D86B4E" d="M38.799,5.056l-0.465,0.875c-0.715-0.821-1.655-1.326-2.698-1.354c-1.306-0.035-2.507,0.687-3.346,1.854
			l-0.52-0.778c0.992-1.333,2.391-2.153,3.905-2.115C36.876,3.569,37.96,4.134,38.799,5.056z"/>
	</g>
	<g>
		<path fill="#D86B4E" d="M37.006,8.835L36.513,9.76c-0.211-0.479-0.608-0.806-1.074-0.818c-0.515-0.012-0.979,0.363-1.212,0.919
			l-0.541-0.805c0.409-0.711,1.07-1.172,1.795-1.152C36.097,7.919,36.641,8.278,37.006,8.835z"/>
		<path fill="#D86B4E" d="M37.918,6.917L37.448,7.8c-0.483-0.639-1.154-1.042-1.911-1.062c-0.912-0.024-1.749,0.518-2.302,1.375
			l-0.523-0.781c0.709-1.025,1.742-1.663,2.868-1.634C36.491,5.722,37.309,6.18,37.918,6.917z"/>
		<path fill="#D86B4E" d="M38.799,5.056l-0.465,0.875c-0.715-0.821-1.655-1.326-2.698-1.354c-1.306-0.035-2.507,0.687-3.346,1.854
			l-0.52-0.778c0.992-1.333,2.391-2.153,3.905-2.115C36.876,3.569,37.96,4.134,38.799,5.056z"/>
	</g>
</g>
<linearGradient id="SVGID_5_" gradientUnits="userSpaceOnUse" x1="33.7881" y1="13.7827" x2="36.9209" y2="13.7827">
	<stop  offset="0" style="stop-color:#FFFFFF"/>
	<stop  offset="1" style="stop-color:#57AD62"/>
</linearGradient>
<polygon fill="url(#SVGID_5_)" points="33.788,11.37 36.921,11.37 36.921,16.196 33.788,14.367 "/>
</svg>
