<?xml version="1.0" encoding="utf-8"?>
<!-- Generator: Adobe Illustrator 21.0.0, SVG Export Plug-In . SVG Version: 6.00 Build 0)  -->
<svg version="1.1" id="Слой_1" xmlns="http://www.w3.org/2000/svg" xmlns:xlink="http://www.w3.org/1999/xlink" x="0px" y="0px"
	 viewBox="0 0 250.8 189.9" style="enable-background:new 0 0 250.8 189.9;" xml:space="preserve">
<style type="text/css">
	.st0{fill:#619A41;}
	.st1{fill:#56873D;}
	.st2{enable-background:new    ;}
	.st3{fill:#FFFFFF;}
	.st4{fill:none;stroke:#619A3F;stroke-miterlimit:10;}
	.st5{opacity:0.31;fill:#24341B;enable-background:new    ;}
</style>
<path class="st0" d="M404.1,254.8"/>
<polygon class="st1" points="142.5,102.4 177,102.4 177,66.2 159.3,47.7 124.8,82.2 "/>
<polygon class="st1" points="95.6,43.8 82.7,54.4 82.7,32 95.6,32 "/>
<g>
	<g class="st2">
		<path class="st3" d="M0.4,170.1l5.4-1.3c0.6,3.4,3.1,5.1,7.4,5.1c2,0,3.5-0.4,4.5-1.3c1.1-0.9,1.6-2,1.6-3.2
			c0-0.9-0.2-1.8-0.7-2.6s-1.5-1.4-3.1-1.9l-5.9-1.7c-2-0.6-3.5-1.3-4.4-2c-1-0.7-1.7-1.8-2.3-3.2S2,155.2,2,153.6
			c0-3.1,1-5.5,3.1-7.4c2-1.9,4.6-2.8,7.8-2.8c2.6,0,5,0.6,7.1,1.9c2.1,1.3,3.4,3.1,4,5.5l-5.3,1.5c-0.8-2.6-2.7-3.9-5.7-3.9
			c-1.7,0-3,0.4-3.9,1.2c-0.9,0.8-1.4,1.8-1.4,3.1c0,2,1.4,3.3,4.3,4.1l5.2,1.5c3.2,0.9,5.3,2.2,6.4,3.9s1.6,3.7,1.6,5.8
			c0,3.4-1.1,6-3.4,8c-2.3,1.9-5.2,2.9-8.8,2.9c-3,0-5.7-0.7-8-2.1C2.6,175.3,1.1,173.1,0.4,170.1z"/>
		<path class="st3" d="M41.2,178.9c-4.1,0-7.2-1.7-9.5-5.1s-3.4-7.7-3.4-12.7s1.2-9.2,3.6-12.6c2.4-3.4,5.6-5,9.5-5
			c4,0,7.1,1.7,9.4,5c2.3,3.4,3.5,7.6,3.5,12.6c0,5.3-1.2,9.6-3.6,12.9C48.3,177.3,45.1,178.9,41.2,178.9z M41.2,173.9
			c2,0,3.7-0.9,5.1-2.8c1.4-1.8,2.1-5.2,2.1-10c0-3.9-0.6-7-1.7-9.3s-2.9-3.4-5.3-3.4c-4.7,0-7.1,4.3-7.1,12.8
			c0,4.1,0.6,7.3,1.8,9.4C37.2,172.8,39,173.9,41.2,173.9z"/>
		<path class="st3" d="M78.4,178.4H59.5V144h5.8v28.8h13.1V178.4z"/>
		<path class="st3" d="M87.9,178.4h-5.5V144h5.5V178.4z"/>
		<path class="st3" d="M94.5,178.4V144h11.3c4.2,0,7.5,1.7,10.1,5s3.8,7.4,3.8,12.3s-1.3,8.9-3.9,12.2s-6.3,4.9-11.2,4.9H94.5z
			 M100.2,173.3h4.6c2.5,0,4.6-1,6.3-3.1c1.7-2.1,2.6-5.2,2.6-9.3c0-3.4-0.8-6.2-2.3-8.5s-3.5-3.5-6-3.5h-5.3v24.4H100.2z"/>
	</g>
</g>
<g class="st2">
	<path class="st0" d="M154.4,178.4h-5.6v-15H137v15h-5.6v-34.5h5.6v14.2h11.8v-14.2h5.6V178.4z"/>
	<path class="st0" d="M172.6,178.9c-4.1,0-7.3-1.7-9.6-5.2c-2.3-3.4-3.4-7.7-3.4-12.7s1.2-9.2,3.6-12.6c2.4-3.4,5.6-5.1,9.6-5.1
		s7.2,1.7,9.5,5.1c2.3,3.4,3.5,7.6,3.5,12.7c0,5.3-1.2,9.6-3.6,12.9C179.8,177.3,176.6,178.9,172.6,178.9z M172.6,173.9
		c2,0,3.7-0.9,5.1-2.8c1.4-1.9,2.1-5.2,2.1-10.1c0-4-0.6-7.1-1.7-9.3c-1.1-2.2-2.9-3.4-5.3-3.4c-4.8,0-7.1,4.3-7.1,12.9
		c0,4.2,0.6,7.3,1.8,9.5C168.6,172.8,170.4,173.9,172.6,173.9z"/>
	<path class="st0" d="M221.2,178.4h-5.7v-30.2l-8.5,30.2h-2.9l-8.6-30.2v30.2H191v-34.5h8.7l6.5,22.2l6.3-22.2h8.7V178.4z"/>
	<path class="st0" d="M248,178.4h-20v-34.5h19.8v5.1h-14.3v9.3H245v5h-11.5v9.6H248V178.4z"/>
</g>
<path class="st4" d="M199.8,112.1c-83.4,30.9-129.7-4.2-130.5-4.8S44,92.2,44,92.2c-20.6-10.7-28.8,16.2-8.7,16.8
	c18.8,0.6,37-16.8,37-16.8"/>
<g>
	<path class="st0" d="M218,113.5l-7-16.2c0,0-16.2,6.8-12.2,14.9S218,113.5,218,113.5z"/>
	
		<rect x="210.8" y="98.2" transform="matrix(0.9096 -0.4154 0.4154 0.9096 -21.9163 98.0249)" class="st0" width="7.1" height="2.4"/>
	
		<rect x="215.3" y="108.1" transform="matrix(0.9096 -0.4154 0.4154 0.9096 -25.6236 100.7886)" class="st0" width="7.1" height="2.4"/>
</g>
<polygon class="st0" points="125.7,13.2 69.3,67 69.3,102.4 105.5,102.4 160.2,47.7 "/>
<path class="st1" d="M160.2,48.6"/>
<polygon class="st5" points="159.8,48.1 125.2,82.7 128.4,86.3 "/>
</svg>
